<?xml version="1.0" encoding="UTF-8"?>
<svg xmlns="http://www.w3.org/2000/svg" xmlns:xlink="http://www.w3.org/1999/xlink" width="16px" height="13px" viewBox="0 0 16 13" version="1.1">
<g id="surface1">
<path style=" stroke:none;fill-rule:nonzero;fill:rgb(0%,0%,0%);fill-opacity:1;" d="M 14.535156 13 L 1.464844 13 C 0.773438 13 0.210938 12.4375 0.210938 11.742188 C 0.210938 11.050781 0.773438 10.488281 1.464844 10.488281 L 14.535156 10.488281 C 15.226562 10.488281 15.789062 11.050781 15.789062 11.742188 C 15.789062 12.4375 15.226562 13 14.535156 13 Z M 14.535156 13 "/>
<path style=" stroke:none;fill-rule:nonzero;fill:rgb(0%,0%,0%);fill-opacity:1;" d="M 14.535156 7.789062 L 1.464844 7.789062 C 0.992188 7.832031 0.535156 7.601562 0.285156 7.199219 C 0.0351562 6.792969 0.0351562 6.285156 0.285156 5.878906 C 0.535156 5.476562 0.992188 5.246094 1.464844 5.289062 L 14.535156 5.289062 C 15.007812 5.246094 15.464844 5.476562 15.714844 5.878906 C 15.964844 6.285156 15.964844 6.792969 15.714844 7.199219 C 15.464844 7.601562 15.007812 7.832031 14.535156 7.789062 Z M 14.535156 7.789062 "/>
<path style=" stroke:none;fill-rule:nonzero;fill:rgb(0%,0%,0%);fill-opacity:1;" d="M 14.535156 2.503906 L 1.464844 2.503906 C 1.132812 2.507812 0.8125 2.378906 0.574219 2.144531 C 0.339844 1.910156 0.207031 1.589844 0.210938 1.257812 C 0.203125 0.921875 0.335938 0.597656 0.570312 0.363281 C 0.808594 0.125 1.132812 -0.00390625 1.464844 0 L 14.535156 0 C 14.867188 -0.00390625 15.191406 0.125 15.429688 0.363281 C 15.664062 0.597656 15.796875 0.921875 15.789062 1.257812 C 15.792969 1.589844 15.660156 1.910156 15.425781 2.144531 C 15.1875 2.378906 14.867188 2.507812 14.535156 2.503906 Z M 14.535156 2.503906 "/>
</g>
</svg>
